<?xml version="1.0"?>
<svg xmlns="http://www.w3.org/2000/svg" xmlns:xlink="http://www.w3.org/1999/xlink" version="1.1" id="Capa_1" x="0px" y="0px" width="512px" height="512px" viewBox="0 0 461.002 461.002" style="enable-background:new 0 0 461.002 461.002;" xml:space="preserve" class=""><g><g>
	<g>
		<path d="M461.001,448.502V12.5c0-6.903-5.596-12.5-12.5-12.5h-436c-6.904,0-12.5,5.597-12.5,12.5v436.002    c0,6.903,5.596,12.5,12.5,12.5h436C455.405,461.002,461.001,455.405,461.001,448.502z M436.001,436.002h-411V25h411V436.002z" data-original="#000000" class="active-path" data-old_color="#000000" fill="#FFFFFF"/>
		<path d="M151.755,337.012c6.903,0,12.5-5.597,12.5-12.5v-81.511h132.492v81.511c0,6.903,5.597,12.5,12.5,12.5    s12.5-5.597,12.5-12.5V136.49c0-6.903-5.597-12.5-12.5-12.5s-12.5,5.597-12.5,12.5v81.511H164.255V136.49    c0-6.903-5.597-12.5-12.5-12.5c-6.903,0-12.5,5.597-12.5,12.5v188.021C139.255,331.415,144.852,337.012,151.755,337.012z" data-original="#000000" class="active-path" data-old_color="#000000" fill="#FFFFFF"/>
	</g>
</g></g> </svg>
